<svg width="1000" height="1000" viewBox="0 0 1000 1000" fill="none" xmlns="http://www.w3.org/2000/svg">
<g clip-path="url(#clip0_2_2)">
<path d="M1000 0H0V1000H1000V0Z" fill="#684463"/>
<path opacity="0.5" d="M774.5 271.1H591.6V219.1H651.6C666 219.1 677.6 207.5 677.6 193.1C677.6 178.7 666 167.1 651.6 167.1H348.4C334 167.1 322.4 178.7 322.4 193.1C322.4 207.5 334 219.1 348.4 219.1H408.4V271.1H225.5C211.1 271.1 199.5 282.7 199.5 297.1C199.5 311.5 211.1 323.1 225.5 323.1H294.1V375.1H297.8C283.4 375.1 271.8 386.7 271.8 401.1C271.8 415.5 283.4 427.1 297.8 427.1H396.4V479.1H320.4C306 479.1 294.4 490.7 294.4 505.1C294.4 519.5 306 531.1 320.4 531.1H396.4V583.1H289.7C275.3 583.1 263.7 594.7 263.7 609.1C263.7 623.5 275.3 635.1 289.7 635.1H678.2C692.6 635.1 704.2 623.5 704.2 609.1C704.2 594.7 692.6 583.1 678.2 583.1H603.7V531.1H627.3C641.7 531.1 653.3 519.5 653.3 505.1C653.3 490.7 641.7 479.1 627.3 479.1H603.7V427.1H702.3C716.7 427.1 728.3 415.5 728.3 401.1C728.3 386.7 716.7 375.1 702.3 375.1H706V323.1H774.6C789 323.1 800.6 311.5 800.6 297.1C800.5 282.8 788.8 271.1 774.5 271.1Z" fill="#825D7E"/>
<path opacity="0.69" d="M846.3 713.5H153.7C147.1 713.5 141.7 708.1 141.7 701.5C141.7 694.9 147.1 689.5 153.7 689.5H846.4C853 689.5 858.4 694.9 858.4 701.5C858.3 708.1 853 713.5 846.3 713.5Z" fill="#3D233C"/>
<path opacity="0.5" d="M231.8 429.7H204.6C190.2 429.7 178.6 418.1 178.6 403.7C178.6 389.3 190.2 377.7 204.6 377.7H231.8C246.2 377.7 257.8 389.3 257.8 403.7C257.8 418 246.2 429.7 231.8 429.7Z" fill="#825D7E"/>
<path d="M555.9 375.1H444.1C429.7 375.1 418.1 363.5 418.1 349.1C418.1 334.7 429.7 323.1 444.1 323.1H555.8C570.2 323.1 581.8 334.7 581.8 349.1C581.9 363.5 570.2 375.1 555.9 375.1Z" fill="#684463"/>
<path d="M796 375.1H684.3C669.9 375.1 658.3 363.5 658.3 349.1C658.3 334.7 669.9 323.1 684.3 323.1H796C810.4 323.1 822 334.7 822 349.1C822 363.5 810.4 375.1 796 375.1Z" fill="#684463"/>
<path d="M694.2 479.1H582.5C568.1 479.1 556.5 467.5 556.5 453.1C556.5 438.7 568.1 427.1 582.5 427.1H694.2C708.6 427.1 720.2 438.7 720.2 453.1C720.2 467.5 708.6 479.1 694.2 479.1Z" fill="#684463"/>
<path d="M350.3 375.1H238.5C224.1 375.1 212.5 363.5 212.5 349.1C212.5 334.7 224.1 323.1 238.5 323.1H350.2C364.6 323.1 376.2 334.7 376.2 349.1C376.3 363.5 364.6 375.1 350.3 375.1Z" fill="#684463"/>
<path d="M422.3 271.1H310.6C296.2 271.1 284.6 259.5 284.6 245.1C284.6 230.7 296.2 219.1 310.6 219.1H422.3C436.7 219.1 448.3 230.7 448.3 245.1C448.3 259.5 436.7 271.1 422.3 271.1Z" fill="#684463"/>
<path d="M667.7 271.1H556C541.6 271.1 530 259.5 530 245.1C530 230.7 541.6 219.1 556 219.1H667.7C682.1 219.1 693.7 230.7 693.7 245.1C693.7 259.5 682.1 271.1 667.7 271.1Z" fill="#684463"/>
<path d="M694.2 583.1H582.5C568.1 583.1 556.5 571.5 556.5 557.1C556.5 542.7 568.1 531.1 582.5 531.1H694.2C708.6 531.1 720.2 542.7 720.2 557.1C720.2 571.5 708.6 583.1 694.2 583.1Z" fill="#684463"/>
<path d="M410.5 583.1H298.7C284.3 583.1 272.7 571.5 272.7 557.1C272.7 542.7 284.3 531.1 298.7 531.1H410.4C424.8 531.1 436.4 542.7 436.4 557.1C436.5 571.5 424.8 583.1 410.5 583.1Z" fill="#684463"/>
<path d="M780 492.1H751.9V487.9C751.9 485.4 753.9 483.4 756.4 483.4H775.4C777.9 483.4 779.9 485.4 779.9 487.9V492.1H780Z" fill="#96628A"/>
<path d="M777.1 483.3H774C775.6 483.3 776.9 484.4 776.9 485.8V492H780V485.8C780 484.4 778.7 483.3 777.1 483.3Z" fill="#84517A"/>
<path d="M779.6 535.5H752.2C748.7 535.5 746 532.7 746 529.3V498.4C746 494.9 748.8 492.2 752.2 492.2H779.6C783.1 492.2 785.8 495 785.8 498.4V529.3C785.9 532.7 783.1 535.5 779.6 535.5Z" fill="#CC83B4"/>
<path d="M779.6 492.1H775C778.5 492.1 781.2 494.9 781.2 498.3V529.2C781.2 532.7 778.4 535.4 775 535.4H779.6C783.1 535.4 785.8 532.6 785.8 529.2V498.3C785.9 494.9 783.1 492.1 779.6 492.1Z" fill="#BC71A7"/>
<path d="M728.3 635.1H271.8V687.1H728.3V635.1Z" fill="#684463"/>
<path d="M463 226.5H424.9V291H463V226.5Z" fill="#AB8FB8"/>
<path d="M456.7 226.5H418.6V291H456.7V226.5Z" fill="#DFCCE2"/>
<path opacity="0.82" d="M456.7 283.5H418.6V290H456.7V283.5Z" fill="#A380AF"/>
<path opacity="0.82" d="M463 283.5H456.7V290H463V283.5Z" fill="#A380AF"/>
<path d="M491 290H404.7V330.8H491V290Z" fill="#AB8FB8"/>
<path d="M372.3 676.4L433 509.6L396.9 496.4L331.3 676.4H372.3Z" fill="#AC91BA"/>
<path d="M356.6 676.4L417.3 509.6L381.1 496.4L315.6 676.4H356.6Z" fill="#DFCCE2"/>
<path opacity="0.82" d="M395 501.5L381.1 496.4L354.6 569.3H411.2L433 509.6L396.9 496.4L395 501.5Z" fill="#A380AF"/>
<path d="M341.4 676.4H285.1V702.4H341.4V676.4Z" fill="#DFCCE2"/>
<path d="M390.6 676.4H334.3V702.4H390.6V676.4Z" fill="#B39FC1"/>
<path d="M682.6 414.2L675.2 416.2C674.3 416.4 673.7 417.3 673.7 418.4C673.3 424.1 673.7 431 675.1 439.1C678.4 458.3 686.9 481.3 699.4 502C700.9 504.6 703.9 503.8 704 500.8C704.6 476.6 700.7 452.4 694.1 434.1C691.3 426.4 688.3 420.2 685.1 415.4C684.4 414.5 683.5 414 682.6 414.2Z" fill="#F7CD84"/>
<path d="M694.1 434.1C691.3 426.4 688.3 420.2 685.1 415.4C684.5 414.4 683.5 414 682.7 414.2L679.3 415.1C680.1 416.2 681.1 417.4 682 418.8C682 418.8 683.4 421 684.8 423.4C692.6 437.3 695.6 450.1 698.1 461C699.9 468.8 700.6 474.3 701.9 485.3C702.4 489.1 703.6 499.5 702.3 503.4C703.2 503.1 704 502.2 704 500.7C704.6 476.7 700.7 452.5 694.1 434.1Z" fill="#F8B461"/>
<path d="M670.3 385.9C670.3 385.5 669.9 385.4 669.6 385.6C667.3 388.4 661.8 396.3 663.5 406C663.7 407.1 665.6 417.3 673.3 420.8C675.8 421.9 677.7 421.8 678.1 421.8C682.7 421.5 686.9 417.2 687.9 412.7C689.2 406.9 685.1 400.7 680.7 398.2C678.5 396.9 676.5 396.8 673.9 394.3C671.3 391.9 670.6 389.6 670.5 389.1C670.2 387.9 670.2 386.8 670.3 385.9Z" fill="#6F5A66"/>
<path d="M680.8 398.2C678.6 396.9 676.6 396.8 674 394.3C671.4 391.9 670.7 389.6 670.6 389.1C670.3 388 670.3 386.9 670.3 386.1C670.3 385.9 670.2 385.7 670 385.7C669.8 386.7 669.6 388.1 669.9 389.7C670 390.3 670.5 392.7 672.9 395.5C675.4 398.3 677.4 398.6 679.5 400.2C683.7 403.2 687.4 410.1 685.6 416C685.2 417.2 684.7 418.3 684 419.4C686 417.7 687.5 415.3 688 412.8C689.2 406.9 685.1 400.7 680.8 398.2Z" fill="#6B4C5F"/>
<path d="M673.9 394.3C671.3 391.9 670.6 389.6 670.5 389.1C670.2 387.9 670.2 386.8 670.2 386C670.2 385.6 669.8 385.5 669.5 385.7C667.4 388.3 662.6 395.2 663.2 403.8C663.2 403.8 663.3 404.5 663.3 404.7V421.2C663.3 422.2 664.1 423.1 665.2 423.1C666.2 423.1 667.1 422.3 667.1 421.2V405.6C667.1 404.9 667.7 404.3 668.4 404.3C669.1 404.3 669.7 404.9 669.7 405.6V408.5C669.7 409.3 670.2 410 671 410.1C672 410.3 672.8 409.5 672.8 408.5V407.4C672.8 406.2 672.7 403.2 674.8 402.7C679.4 401.6 679.5 400.8 680.5 398.1C678.5 396.9 676.6 396.8 673.9 394.3Z" fill="#ED4A5E"/>
<path d="M781.867 701.5L791.867 701.5L791.867 551.5L781.867 551.5L781.867 701.5Z" fill="#DE6173"/>
<path d="M769.867 701.5L781.867 701.5L781.867 551.5L769.867 551.5L769.867 701.5Z" fill="#F37F82"/>
<path d="M775.9 667.3H717.9V680.3H775.9V667.3Z" fill="#DD6B80"/>
<path d="M775.9 551.5H717.9V591.5H775.9V551.5Z" fill="#DD6B80"/>
<path opacity="0.34" d="M764.3 569.9H759.5C757.8 569.9 756.5 568.6 756.5 566.9C756.5 565.2 757.8 563.9 759.5 563.9H764.3C766 563.9 767.3 565.2 767.3 566.9C767.3 568.5 766 569.9 764.3 569.9Z" fill="#F37F82"/>
<path opacity="0.34" d="M768.3 579.1H745.1C743.4 579.1 742.1 577.8 742.1 576.1C742.1 574.4 743.4 573.1 745.1 573.1H768.3C770 573.1 771.3 574.4 771.3 576.1C771.3 577.8 770 579.1 768.3 579.1Z" fill="#F37F82"/>
<path opacity="0.34" d="M751.1 569.9H737.4C735.7 569.9 734.4 568.6 734.4 566.9C734.4 565.2 735.7 563.9 737.4 563.9H751.1C752.8 563.9 754.1 565.2 754.1 566.9C754.1 568.5 752.8 569.9 751.1 569.9Z" fill="#F37F82"/>
<path d="M397.5 583.3L385 617.5H490.6V583.3H397.5Z" fill="#D1B9D6"/>
<path opacity="0.87" d="M397.5 583.3L385 617.5H391.8L404.3 583.3H397.5Z" fill="#A380AF"/>
<path d="M723.1 391.1L718.3 390.4L712.2 401.2L725.8 403.2L723.1 391.1Z" fill="#C5E1DF"/>
<path d="M706.7 491.6L705 491.4C701.7 490.9 699.5 487.9 699.9 484.6L712.2 401.3L725.7 403.3L713.4 486.6C713 489.8 709.9 492.1 706.7 491.6Z" fill="#F7CD84"/>
<path d="M702.6 491C700.7 490.7 699.3 488.9 699.6 487L712.3 401.2L715.8 401.7L702.6 491Z" fill="#F8B461"/>
<path d="M709.1 491.9L722.3 402.6L725.8 403.1L713.1 488.9C712.8 490.9 711 492.2 709.1 491.9Z" fill="#F8B461"/>
<path d="M723.1 391.1L722 386.1C721.8 385.4 721.1 385.2 720.7 385.9L718.2 390.3L723.1 391.1Z" fill="#6F5A66"/>
<path d="M723.1 391.1L720.8 390.7L722.3 402.7L725.8 403.2L723.1 391.1Z" fill="#A5CECA"/>
<path d="M633.867 701.5L643.867 701.5L643.867 551.5L633.867 551.5L633.867 701.5Z" fill="#DE6173"/>
<path d="M621.867 701.5L633.867 701.5L633.867 551.5L621.867 551.5L621.867 701.5Z" fill="#F37F82"/>
<path d="M717.867 701.5L727.867 701.5L727.867 551.5L717.867 551.5L717.867 701.5Z" fill="#DE6173"/>
<path d="M705.867 701.5L717.867 701.5L717.867 551.5L705.867 551.5L705.867 701.5Z" fill="#F37F82"/>
<path d="M705.9 551.5H638.4V591.5H705.9V551.5Z" fill="#F37F82"/>
<path d="M705.9 667.3H638.4V680.3H705.9V667.3Z" fill="#F37F82"/>
<path d="M553.5 676.4L487.9 496.4L451.8 509.6L512.5 676.4H553.5Z" fill="#AC91BA"/>
<path d="M541.9 676.4L476.4 496.4L440.3 509.6L501 676.4H541.9Z" fill="#DFCCE2"/>
<path opacity="0.82" d="M487.9 496.4L477.7 500.1L476.4 496.4L440.3 509.6L462 569.3H514.5L487.9 496.4Z" fill="#A380AF"/>
<path d="M304 557H284.8V540.4C284.8 534.4 289.7 529.5 295.7 529.5H304.1V557H304Z" fill="#AB8FB8"/>
<path d="M582.5 557H284.8V540.4C284.8 534.4 289.7 529.5 295.7 529.5H582.6V557H582.5Z" fill="#DFCCE2"/>
<path d="M582.5 557H563.3V540.4C563.3 534.4 568.2 529.5 574.2 529.5H582.6V557H582.5Z" fill="#AB8FB8"/>
<path d="M564.9 330.8H324.5V529.5H564.9V330.8Z" fill="#AB8FB8"/>
<path d="M549.7 330.8H309.3V529.5H549.7V330.8Z" fill="#FFFDFF"/>
<path d="M532.6 676.4H476.3V702.4H532.6V676.4Z" fill="#DFCCE2"/>
<path d="M581.9 676.4H525.6V702.4H581.9V676.4Z" fill="#B39FC1"/>
<path d="M717.9 535.5H611.9V551.5H717.9V535.5Z" fill="#F37F82"/>
<path d="M797.9 535.5H717.9V551.5H797.9V535.5Z" fill="#DE6173"/>
<path d="M705.9 551.5H638.4V557H705.9V551.5Z" fill="#E26971"/>
<path d="M727.884 551.484L727.884 591.484L731.884 591.484L731.884 551.484L727.884 551.484Z" fill="#CE5F78"/>
<path d="M727.85 667.317L727.85 680.317L731.85 680.317L731.85 667.317L727.85 667.317Z" fill="#CE5F78"/>
<path d="M729.867 557.045L775.867 557.045L775.867 551.545L729.867 551.545L729.867 557.045Z" fill="#CE5F78"/>
<path d="M717.9 551.5H705.9V552.1H717.9V551.5Z" fill="#E26971"/>
<path d="M633.9 551.5H621.9V552.1H633.9V551.5Z" fill="#E26971"/>
<path d="M674.9 578C677.938 578 680.4 575.538 680.4 572.5C680.4 569.462 677.938 567 674.9 567C671.862 567 669.4 569.462 669.4 572.5C669.4 575.538 671.862 578 674.9 578Z" fill="#E26971"/>
<path d="M672.1 577.5C675.138 577.5 677.6 575.038 677.6 572C677.6 568.962 675.138 566.5 672.1 566.5C669.062 566.5 666.6 568.962 666.6 572C666.6 575.038 669.062 577.5 672.1 577.5Z" fill="#633047"/>
<path d="M670.623 571.466C671.778 571.363 672.647 570.521 672.563 569.586C672.48 568.651 671.476 567.976 670.321 568.079C669.165 568.182 668.297 569.024 668.38 569.959C668.463 570.894 669.467 571.569 670.623 571.466Z" fill="#F4CEE1"/>
<path opacity="0.4" d="M701.1 565.7H690.1C688.4 565.7 687.1 564.4 687.1 562.7C687.1 561 688.4 559.7 690.1 559.7H701.1C702.8 559.7 704.1 561 704.1 562.7C704.1 564.4 702.8 565.7 701.1 565.7Z" fill="#E26971"/>
<path opacity="0.4" d="M695.2 575H687.8C686.1 575 684.8 573.7 684.8 572C684.8 570.3 686.1 569 687.8 569H695.2C696.9 569 698.2 570.3 698.2 572C698.2 573.7 696.8 575 695.2 575Z" fill="#E26971"/>
<path opacity="0.2" d="M681.8 586.1H645.8C644.1 586.1 642.8 584.8 642.8 583.1C642.8 581.4 644.1 580.1 645.8 580.1H681.8C683.5 580.1 684.8 581.4 684.8 583.1C684.8 584.7 683.5 586.1 681.8 586.1Z" fill="#E26971"/>
<path opacity="0.39" d="M662.8 586.1H657.5C655.8 586.1 654.5 584.8 654.5 583.1C654.5 581.4 655.8 580.1 657.5 580.1H662.7C664.4 580.1 665.7 581.4 665.7 583.1C665.8 584.7 664.5 586.1 662.8 586.1Z" fill="#E26971"/>
<path opacity="0.4" d="M671.9 565.7H646.9C645.2 565.7 643.9 564.4 643.9 562.7C643.9 561 645.2 559.7 646.9 559.7H671.9C673.6 559.7 674.9 561 674.9 562.7C674.9 564.4 673.6 565.7 671.9 565.7Z" fill="#E26971"/>
<path d="M732.1 535.5H676.1C671.7 535.5 668.1 531.9 668.1 527.5V459.3C668.1 457.6 669.4 456.3 671.1 456.3H737.1C738.8 456.3 740.1 457.6 740.1 459.3V527.5C740.1 531.9 736.5 535.5 732.1 535.5Z" fill="#EA3268"/>
<path opacity="0.69" d="M723.2 456.3V527.5C723.2 531.9 719.6 535.5 715.2 535.5H732.2C736.6 535.5 740.2 531.9 740.2 527.5V459.3C740.2 457.6 738.9 456.3 737.2 456.3H723.2Z" fill="#AA235B"/>
<path d="M248.8 623.6H205.4V612.3C205.4 609.8 207.4 607.8 209.9 607.8H244.3C246.8 607.8 248.8 609.8 248.8 612.3V623.6Z" fill="#F8B461"/>
<path d="M244.3 607.8H239.5C242 607.8 244 609.8 244 612.3V623.6H248.8V612.3C248.8 609.8 246.8 607.8 244.3 607.8Z" fill="#E29C50"/>
<path d="M251.7 702.3H202.6C199.1 702.3 196.4 699.5 196.4 696.1V629.9C196.4 626.4 199.2 623.7 202.6 623.7H251.7C255.2 623.7 257.9 626.5 257.9 629.9V696C257.9 699.5 255.1 702.3 251.7 702.3Z" fill="#F7CD84"/>
<path d="M250.6 623.6H242.4C246.5 623.6 249.7 626.9 249.7 630.9V694.9C249.7 699 246.4 702.2 242.4 702.2H250.6C254.7 702.2 257.9 698.9 257.9 694.9V630.9C257.9 626.9 254.7 623.6 250.6 623.6Z" fill="#F8B461"/>
<path d="M208.4 645.2H207.6C206.4 645.2 205.4 644.2 205.4 643V623.7H210.5V643C210.5 644.2 209.6 645.2 208.4 645.2Z" fill="#ED4A5E"/>
<path d="M215.6 623.6H210.5V630.6H215.6V623.6Z" fill="#ED4A5E"/>
<path d="M213.5 633.3H212.7C211.5 633.3 210.5 632.3 210.5 631.1V629.4C210.5 628.2 211.5 627.2 212.7 627.2H213.5C214.7 627.2 215.7 628.2 215.7 629.4V631.1C215.7 632.3 214.7 633.3 213.5 633.3Z" fill="#F7CD84"/>
<path d="M218.6 633.7H217.8C216.6 633.7 215.6 632.7 215.6 631.5V623.6H220.7V631.5C220.8 632.7 219.8 633.7 218.6 633.7Z" fill="#ED4A5E"/>
<path d="M476.8 290H390.5V330.8H476.8V290Z" fill="#DFCCE2"/>
<path opacity="0.82" d="M439.8 320.7C445.489 320.7 450.1 316.089 450.1 310.4C450.1 304.711 445.489 300.1 439.8 300.1C434.111 300.1 429.5 304.711 429.5 310.4C429.5 316.089 434.111 320.7 439.8 320.7Z" fill="#A380AF"/>
<path d="M437.1 320.7C442.789 320.7 447.4 316.089 447.4 310.4C447.4 304.711 442.789 300.1 437.1 300.1C431.411 300.1 426.8 304.711 426.8 310.4C426.8 316.089 431.411 320.7 437.1 320.7Z" fill="#736177"/>
<path d="M257.9 648.9H196.3V675.1H257.9V648.9Z" fill="#EA3268"/>
<path d="M258 648.9H250.2V675.1H258V648.9Z" fill="#D33167"/>
<path d="M659.2 664.9C657.3 664.9 655.7 663.3 655.7 661.4C655.7 659.5 657.3 657.9 659.2 657.9H701.3V655.4H659.2C655.9 655.4 653.2 658.1 653.2 661.4C653.2 664.7 655.9 667.4 659.2 667.4H701.3V664.9H659.2Z" fill="#ED4A5E"/>
<path d="M659.2 664.9C657.3 664.9 655.7 663.3 655.7 661.4C655.7 659.5 657.3 657.9 659.2 657.9H699.4V664.9H659.2Z" fill="#F4E1E4"/>
<path opacity="0.2" d="M699.4 657.9H682.4V664.9H699.4V657.9Z" fill="#442228"/>
<path opacity="0.2" d="M701.3 655.4H682.4V657.8H701.3V655.4Z" fill="#442228"/>
<path opacity="0.2" d="M701.3 664.9H682.4V667.3H701.3V664.9Z" fill="#442228"/>
<path d="M171.5 702.3C171.5 698.7 174.4 695.7 178.1 695.7C181.8 695.7 184.7 698.6 184.7 702.3H171.5Z" fill="#ED4A5E"/>
<path d="M181.3 702.3C181.3 700.5 182.8 699 184.6 699C186.4 699 187.9 700.5 187.9 702.3H181.3Z" fill="#E0445E"/>
</g>
<defs>
<clipPath id="clip0_2_2">
<rect width="1000" height="1000" fill="white"/>
</clipPath>
</defs>
</svg>
